<svg xmlns="http://www.w3.org/2000/svg" viewBox="0 0 151.87 174.69"><defs><style>.aa790571-0df4-4702-92bd-d37bb22a51e1{fill:#444343;}.f6dfa096-d4d1-479c-b422-656db88f1ca0{fill:#fff;}</style></defs><title>Recurso 7</title><g id="e785bdae-64ff-47dd-a911-88bdecae6781" data-name="Capa 2"><g id="ebdff6d7-5428-44c0-9489-2b05a7d1adf4" data-name="Capa 1"><path class="aa790571-0df4-4702-92bd-d37bb22a51e1" d="M14.44,90.7,31.52,170a5.91,5.91,0,0,0,7,4.53L147.2,151.23a5.91,5.91,0,0,0,4.52-7.09L133.77,65.08Z"/><polygon class="aa790571-0df4-4702-92bd-d37bb22a51e1" points="47.38 34.1 58.4 28.61 58.27 53.48 47.26 58.81 47.38 34.1"/><polygon class="aa790571-0df4-4702-92bd-d37bb22a51e1" points="72.9 21.37 83.91 15.88 83.78 41.13 72.77 46.47 72.9 21.37"/><polygon class="aa790571-0df4-4702-92bd-d37bb22a51e1" points="98.41 8.65 109.42 3.15 109.29 28.79 98.28 34.12 98.41 8.65"/><path class="aa790571-0df4-4702-92bd-d37bb22a51e1" d="M125.07,21.15l-1.28.62,0-10.09,2.62,5.52A3,3,0,0,1,125.07,21.15Z"/><polygon class="aa790571-0df4-4702-92bd-d37bb22a51e1" points="42.2 86.94 26.49 90.61 15.37 50.07 32.89 41.33 32.76 65.83 32.48 65.96 32.37 66.02 32.5 65.99 42.2 86.94"/><polygon class="aa790571-0df4-4702-92bd-d37bb22a51e1" points="59.8 59.49 69.56 80.55 56.58 83.58 46.85 62.57 47.24 62.48 59.8 59.49"/><polygon class="aa790571-0df4-4702-92bd-d37bb22a51e1" points="87.12 52.99 96.92 74.17 83.94 77.2 74.16 56.08 87.11 52.99 87.12 52.99"/><polygon class="aa790571-0df4-4702-92bd-d37bb22a51e1" points="114.42 46.49 124.27 67.78 111.3 70.81 101.47 49.58 114.42 46.49"/><path class="aa790571-0df4-4702-92bd-d37bb22a51e1" d="M138.84,64.38l-.18,0-9.88-21.35,4.8-1.14a3,3,0,0,1,3.59,2.22l3.89,16.65A3,3,0,0,1,138.84,64.38Z"/><polygon class="f6dfa096-d4d1-479c-b422-656db88f1ca0" points="47.38 34.1 47.26 58.81 32.76 65.83 32.89 41.33 47.38 34.1"/><polygon class="f6dfa096-d4d1-479c-b422-656db88f1ca0" points="72.9 21.37 72.77 46.47 58.27 53.48 58.4 28.61 72.9 21.37"/><polygon class="f6dfa096-d4d1-479c-b422-656db88f1ca0" points="98.41 8.65 98.28 34.12 83.78 41.13 83.91 15.88 98.41 8.65"/><path class="f6dfa096-d4d1-479c-b422-656db88f1ca0" d="M123.84,11.68l0,10.09-14.5,7,.13-25.64L115.1.32a3,3,0,0,1,4,1.39Z"/><polygon class="f6dfa096-d4d1-479c-b422-656db88f1ca0" points="56.58 83.58 42.2 86.94 32.5 65.99 32.76 65.93 46.85 62.57 56.58 83.58"/><polygon class="f6dfa096-d4d1-479c-b422-656db88f1ca0" points="83.94 77.2 69.56 80.55 59.8 59.49 66.91 57.8 72.72 56.42 74.16 56.08 83.94 77.2"/><polygon class="f6dfa096-d4d1-479c-b422-656db88f1ca0" points="111.3 70.81 96.92 74.17 87.12 52.99 101.47 49.58 111.3 70.81"/><polygon class="f6dfa096-d4d1-479c-b422-656db88f1ca0" points="138.66 64.42 124.27 67.78 114.42 46.49 128.78 43.07 138.66 64.42"/><path class="f6dfa096-d4d1-479c-b422-656db88f1ca0" d="M26.49,90.61,15.3,93.22a3.87,3.87,0,0,1-4.75-3.51L9.48,74,.78,62.47a3.88,3.88,0,0,1,1.36-5.8l13.23-6.6Z"/><rect class="f6dfa096-d4d1-479c-b422-656db88f1ca0" x="29.45" y="92.14" width="101.4" height="2.36" transform="translate(-18.78 20.2) rotate(-12.87)"/><rect class="f6dfa096-d4d1-479c-b422-656db88f1ca0" x="42.32" y="144.86" width="101.4" height="2.36" transform="translate(-30.2 24.4) rotate(-12.87)"/><path class="f6dfa096-d4d1-479c-b422-656db88f1ca0" d="M85.37,139.26a16.89,16.89,0,0,1-16.41-13l2.92-.69a13.86,13.86,0,1,0,27-6.3l2.92-.68a16.87,16.87,0,0,1-12.58,20.25A16.89,16.89,0,0,1,85.37,139.26Z"/><path class="f6dfa096-d4d1-479c-b422-656db88f1ca0" d="M67.78,117.16a4.5,4.5,0,1,0-4.5-4.5,4.55,4.55,0,0,0,4.5,4.5Z"/><path class="f6dfa096-d4d1-479c-b422-656db88f1ca0" d="M96.28,110.08a4.5,4.5,0,1,0-4.5-4.5,4.55,4.55,0,0,0,4.5,4.5Z"/></g></g></svg>