<?xml version="1.0" encoding="UTF-8"?>
<svg viewBox="0 0 13.3 32" xmlns="http://www.w3.org/2000/svg">
<defs>
<style>.af156386-bc9b-4a99-b5ce-b16e96f13569{fill:none;}.ee265648-a0af-46cd-9f4f-336174b1d360{clip-path:url(#a);}.a37776e2-f70b-4880-8950-b10bcc00680c{fill:#ba0d0d;}.e3e01846-a006-425b-b444-e61a4fe9a490{fill:#ff1d0c;}</style>
<clipPath id="a" transform="translate(0)">
<path class="af156386-bc9b-4a99-b5ce-b16e96f13569" d="m13.3 4.57v-4.57h-13.3v32h0.18l0.44-0.07 0.45-0.07h0.18l0.55-0.07h0.07c1-0.13 2.09-0.22 3.14-0.26h-0.01v-13.71c2.17-0.05 4.34 0 6.49 0.16v-4.61c-2.15-0.11-4.32-0.15-6.48-0.11v-8.77c2.8-0.01 5.55 0.01 8.29 0.08z"/>
</clipPath>
</defs>
<title>Recurso 5</title>
<g data-name="Capa 2">
<g data-name="Capa 1">
<g class="ee265648-a0af-46cd-9f4f-336174b1d360">
<path class="a37776e2-f70b-4880-8950-b10bcc00680c" transform="translate(0)" d="M0,0H13.3V4.57C10.55,4.5,7.79,4.48,5,4.49v8.77c2.16,0,4.33,0,6.49.11v4.54c-2.16-.16-4.33-.21-6.49-.16q0,6.86,0,13.71A38.51,38.51,0,0,0,0,32Z"/>
<path class="e3e01846-a006-425b-b444-e61a4fe9a490" transform="translate(0)" d="m0 0v32a38.36 38.36 0 0 1 5-0.54v-9.54-4.17-17.75z"/>
</g>
</g>
</g>
</svg>
