<svg xmlns="http://www.w3.org/2000/svg" viewBox="0 0 200 51.4"><defs><style>.e153c5ce-50f9-4990-9ed3-a0d0c0b3bca9{fill:#ff1d0c;}</style></defs><title>Recurso 6</title><g id="fe40c708-45c8-4c83-85d3-705b88cad37e" data-name="Capa 2"><g id="aa005d0f-1056-4893-9853-ba485313a1db" data-name="Capa 1"><path class="e153c5ce-50f9-4990-9ed3-a0d0c0b3bca9" d="M0,0H21.37l0,6.91L8.07,7.17q0,7,0,14c4.16-.26,6.24-.38,10.41-.6,0,2.78,0,4.18,0,7-4.17.3-6.25.46-10.41.8q0,10.94,0,21.87c-3.21.47-4.82.71-8,1.22Z"/><path class="e153c5ce-50f9-4990-9ed3-a0d0c0b3bca9" d="M29.15,0H40.09q4.06,22.82,8.25,45.62c-3.23.26-4.85.4-8.08.71-.57-3.63-.86-5.45-1.44-9.09v.13c-3.67.28-5.51.44-9.17.76-.6,3.77-.9,5.66-1.49,9.45-3,.34-4.49.51-7.47.89Q24.83,24.21,29.15,0Zm8.73,31.13Q36.1,19.66,34.34,8.18H34.2Q32.39,19.9,30.62,31.63C33.52,31.42,35,31.32,37.88,31.13Z"/><path class="e153c5ce-50f9-4990-9ed3-a0d0c0b3bca9" d="M52.35,0h8.08q0,9.44,0,18.86Q65.51,9.41,70.71,0h8.07q-4.84,8.12-9.65,16.26Q74,30.07,78.87,43.88c-3.39.11-5.08.18-8.47.33Q67,34.46,63.6,24.7c-1.3,2.31-2,3.47-3.24,5.8q0,7.13,0,14.26c-3.23.2-4.85.31-8.08.55Q52.29,22.66,52.35,0Z"/><path class="e153c5ce-50f9-4990-9ed3-a0d0c0b3bca9" d="M82.75,0h22V6.22h-14c0,4.61,0,6.91,0,11.52,4.44,0,6.66,0,11.1,0v6.22c-4.44,0-6.66,0-11.1,0q0,6.69,0,13.39,7-.1,14,0v6.22q-11.06,0-22.1.21Z"/><path class="e153c5ce-50f9-4990-9ed3-a0d0c0b3bca9" d="M109.4,0h21.36c0,2.53,0,3.79,0,6.32l-13.3-.07c0,4.88,0,7.32,0,12.2,4.17,0,6.26.07,10.43.15,0,2.52,0,3.79,0,6.31-4.18-.11-6.27-.15-10.45-.21l0,19.07c-3.24-.09-4.86-.12-8.1-.17Z"/><path class="e153c5ce-50f9-4990-9ed3-a0d0c0b3bca9" d="M134.65,0h8.08l.09,38.54q6.66.38,13.3.89c0,2.63,0,3.94,0,6.57q-10.69-.9-21.39-1.53Z"/><path class="e153c5ce-50f9-4990-9ed3-a0d0c0b3bca9" d="M159.91,0H168q.06,23.58.11,47.17c-3.23-.35-4.84-.51-8.07-.82Z"/><path class="e153c5ce-50f9-4990-9ed3-a0d0c0b3bca9" d="M181.17,23.8Q176.78,11.88,172.25,0h8.51q2.78,8,5.46,15.94h.14Q189.18,8,191.92,0h7.64q-4.37,12.24-8.86,24.43,4.78,13.44,9.3,27c-3.39-.54-5.08-.79-8.47-1.29q-2.9-9-5.88-18h-.14q-3,8.2-6,16.39c-3-.38-4.57-.56-7.62-.9Q176.61,35.71,181.17,23.8Z"/></g></g></svg>