<?xml version="1.0" encoding="UTF-8"?>
<svg viewBox="0 0 190.67 190.67" xmlns="http://www.w3.org/2000/svg">
<defs>
<style>.bba9fe42-5e1c-4fef-b462-b7716709d3e6{fill:#444343;}.ad0c4c26-b84c-4966-88c0-546869d83493{fill:#fff;}.b3b3423b-8bb1-4743-9c2a-5842a87c29c1{fill:#141414;}</style>
</defs>
<title>Recurso 23</title>
<g data-name="Capa 2">
<g data-name="Capa 1">
<path class="bba9fe42-5e1c-4fef-b462-b7716709d3e6" d="M95.33,0a95.34,95.34,0,1,0,95.34,95.33A95.33,95.33,0,0,0,95.33,0Z"/>
<path class="ad0c4c26-b84c-4966-88c0-546869d83493" d="M82.44,53.59c1.1,2.78,2.25,3.43,5.08,2.64a35.2,35.2,0,0,1,20.38.22c3,.95,4.11.34,5.35-2.51q5-11.5,10-23a19.05,19.05,0,0,0,.62-1.88c0-2.56-1.59-3.29-3.31-3.89a67.77,67.77,0,0,0-44.46-.63c-3.29,1.06-4,2.44-2.76,5.69Q77.85,41.91,82.44,53.59Z"/>
<path class="ad0c4c26-b84c-4966-88c0-546869d83493" d="M58,108.09c-2.21-8.52-2.66-7.27-9.52-6.47-7.28.84-14.56,1.71-21.85,2.55a3.42,3.42,0,0,0-3.4,3.62c.09.39.21.81.29,1.24A67.27,67.27,0,0,0,45,147.93c2.82,2.58,4.29,2.5,6.68-.46q7.47-9.3,14.92-18.61c2.67-3.34,2.69-4.26-.35-7.3C62.42,117.72,59.36,113.31,58,108.09Z"/>
<path class="ad0c4c26-b84c-4966-88c0-546869d83493" d="M69.17,60C64.08,53.28,59.08,46.44,54,39.66c-1.89-2.53-3.54-2.73-5.93-.71A66.91,66.91,0,0,0,25.62,74.68C23.87,81.66,24,81.86,31,83c7.75,1.27,15.52,2.39,23.29,3.58,2.45.2,3.5-1.27,4-3.34A33.49,33.49,0,0,1,68.66,65.77C70.62,64,70.79,62.19,69.17,60Z"/>
<path class="ad0c4c26-b84c-4966-88c0-546869d83493" d="m169.31 81.92a68.14 68.14 0 0 0-22.18-39.92c-2.11-1.88-3.86-1.82-5.62 0.34q-8.25 10.17-16.38 20.44c-1.33 1.66-1.39 3.41 0.2 4.92a35.87 35.87 0 0 1 10.55 18.89 3.25 3.25 0 0 0 3.41 2.79c9.11-1 18.05-2 27-3.13 2.38-0.32 3.44-1.97 3.02-4.33z"/>
<path class="ad0c4c26-b84c-4966-88c0-546869d83493" d="m164.74 107.9c-2.83-0.51-5.68-0.92-8.53-1.36l-18.93-2.87a12.45 12.45 0 0 0-2.52 2.86c-1 2-1.12 4.5-2.3 6.36a143.78 143.78 0 0 1-8.46 11.79c-1.32 1.67-2.29 3.12-0.84 5.08 5.3 7.16 10.58 14.34 16 21.44 1.51 2 3.28 2.16 5.2 0.56a67.52 67.52 0 0 0 23.6-39.4c0.44-2.65-0.58-3.99-3.22-4.46z"/>
<path class="ad0c4c26-b84c-4966-88c0-546869d83493" d="M110.29,137c-1.14-2.89-2.26-3.61-5.24-2.76a34.69,34.69,0,0,1-20.62-.37c-2.3-.74-3.88,0-4.84,2.26-3.41,7.93-6.89,15.83-10.28,23.78-1.16,2.72-.42,4.19,2.43,5.24a68.11,68.11,0,0,0,24.62,4.2,64.48,64.48,0,0,0,20.33-3.4c3.16-1,3.9-2.46,2.72-5.54Q114.9,148.66,110.29,137Z"/>
<path class="b3b3423b-8bb1-4743-9c2a-5842a87c29c1" d="m96.72 78.61a16.4 16.4 0 1 0 16.46 16.53 16.63 16.63 0 0 0-16.46-16.53z"/>
</g>
</g>
</svg>
