<svg xmlns="http://www.w3.org/2000/svg" xmlns:xlink="http://www.w3.org/1999/xlink" viewBox="0 0 862.44 767.85"><defs><style>.b2c6f3f9-0b1a-4d8e-8d47-c203a3af0fa5{isolation:isolate;}.b23a58d8-fb99-4a6e-81ca-df18791cbc5b{fill:#9e0303;}.a8c18db6-852a-4c80-9abb-612377bf84ea{fill:#6e0902;mix-blend-mode:screen;}.b90b0ea5-c09e-4932-803e-a4d121e27935{mix-blend-mode:hard-light;fill:url(#afc7a6fd-7819-4efb-bb70-709293237a8f);}.ac8656c3-7335-488a-af07-51d549bf3b49{fill:#f27500;}</style><linearGradient id="afc7a6fd-7819-4efb-bb70-709293237a8f" x1="-2998.46" y1="-36.99" x2="-2998.46" y2="480.95" gradientTransform="translate(3429.82)" gradientUnits="userSpaceOnUse"><stop offset="0.01" stop-color="#460982"/><stop offset="0.99" stop-color="gray"/></linearGradient></defs><title>Recurso 14</title><g class="b2c6f3f9-0b1a-4d8e-8d47-c203a3af0fa5"><g id="f1611d6d-5b9f-4149-ac98-4e732485756a" data-name="Capa 2"><g id="a77e1859-06a4-4fc5-83e5-8453e337c327" data-name="Capa 1"><path class="b23a58d8-fb99-4a6e-81ca-df18791cbc5b" d="M3.16,0s7.54,215,88,403.13c0,0-86,307.9-91.2,352.13,0,0,66.85,4,84,4,0,0,751,11,778.49,5.69V1.31Z"/><path class="a8c18db6-852a-4c80-9abb-612377bf84ea" d="M94,269.41a892.65,892.65,0,0,1-4.32-98.64c.23-33,1.42-66,1.73-98.94.23-23.86-2-47.95-.91-71.83H74.36c-2.33,62.06-5.78,124.29.07,186.26C79.66,241.6,85.17,297,93.66,351.94q3.54,22.94,7.8,45.88c.66,2.28,1.31,4.56,2,6.83a38,38,0,0,0,6.41.14v-12.5c-1-8.48-2.06-17-3.21-25.42C102.26,334.41,97.42,302,94,269.41Z"/><path class="a8c18db6-852a-4c80-9abb-612377bf84ea" d="M57.2,212.65c-2.31-23-4.42-46-5.2-69.09-1.1-32.59-.37-65.19.82-97.77Q53.66,22.89,54.54,0H38.1C39,54.42,42.23,108.83,49.39,162.83Q52.71,187.78,57.2,212.65Z"/><path class="a8c18db6-852a-4c80-9abb-612377bf84ea" d="M36.35,164.77C29.1,110.11,25.6,55.08,24.68,0H3.16S9.72,186.9,75.85,364.66q-1.83-11.48-3.49-23C57.4,283.44,44.24,224.29,36.35,164.77Z"/><path class="a8c18db6-852a-4c80-9abb-612377bf84ea" d="M29.14,757.19c0,.84,1.48,17.6,53.1,7.35C79.2,734.9,98,458.78,98,429.15,91.67,456.47,29.53,729,29.14,757.19Z"/><path class="a8c18db6-852a-4c80-9abb-612377bf84ea" d="M104.61,762.53c2.22-2.1,2.44,5,22.15,2.69-3-29.64-6.09-320.47-14.22-352C106.19,440.58,107,734.42,104.61,762.53Z"/><path class="b90b0ea5-c09e-4932-803e-a4d121e27935" d="M3.16,0S11,214.92,91.46,403.06c0,0-86,307.81-91.18,352,0,0,12.15.28,29.1,1.46.16,0-1.57,17.84,52.62,7.68l-.3-5.16,23.23.25-.17,2.82s.58-.54,1.67.18c6.94,4.65,20.17,2.8,20.17,2.8l-.55-5.45s209.72,1.43,280.34,2.65c54.73.95,421.85,3.76,456.05,2.6V1.31Z"/><path class="ac8656c3-7335-488a-af07-51d549bf3b49" d="M109.85,443.53v-3.66a11.55,11.55,0,0,1-2.78-4.14,178.56,178.56,0,0,1,.36-21.59,20,20,0,0,0,.72-4.19c.6.81,1.16,1.64,1.7,2.48v-8.9c-.74.14-1.47.29-2.22.41,0-.1,0-.2-.07-.3l-3,.72h0c-6.09.67-12,.32-15.35-2.91a1.61,1.61,0,0,0-2.2,0,1.47,1.47,0,0,0,0,2.12c2.74,2.66,6.58,3.79,10.83,4a29.36,29.36,0,0,1-12.73-.72,1.57,1.57,0,0,0-1.94,1,1.49,1.49,0,0,0,1,1.87A31.05,31.05,0,0,0,93,411c.6,0,1.2,0,1.8-.06-4.12,2.63-8.53,6.16-8.92,11.48-.3,4.09,1.41,5.78,2.89,6.48a6,6,0,0,0,2.54.52A11.49,11.49,0,0,0,96,428.25c-1,5.43-1.63,11-2.22,16.5-.33,3-.65,5.92-1,8.72l3.08.39c.38-2.84.69-5.73,1-8.8a180,180,0,0,1,2.76-19.12l.21-.16c.73-.64,1.42-1.31,2.07-2a40.23,40.23,0,0,0,.79,8.3,26.35,26.35,0,0,0,1.27,4.28c.12,3.44.29,6.87.46,10.27a269.81,269.81,0,0,1,.4,28.29l3.11.16a269.85,269.85,0,0,0-.41-28.59c-.07-1.6-.15-3.2-.23-4.81a9.81,9.81,0,0,0,2.52,1.84Zm-13-19.25c-2.41,1.73-5.31,2.6-6.72,1.93C89,425.68,88.87,424,89,422.65c.36-4.9,5.68-8.11,9.94-10.69l.3-.18c.54-.32,1.11-.69,1.7-1.07l1.4-.89a12.61,12.61,0,0,0-1.07,1.69A58.37,58.37,0,0,0,96.84,424.28Zm5.4-5.88c-.3.47-.63.94-1,1.41.4-1.26.83-2.49,1.31-3.7C102.44,416.86,102.33,417.62,102.24,418.4Z"/><path class="ac8656c3-7335-488a-af07-51d549bf3b49" d="M104.62,443.52a9.81,9.81,0,0,0,2.52-1.84c-.07,1.61-.15,3.21-.23,4.81-.46,9.41-.94,19.13-.4,28.59l3.1-.16c-.53-9.31,0-19,.41-28.29.16-3.4.33-6.83.45-10.27a26.35,26.35,0,0,0,1.27-4.28,40.93,40.93,0,0,0,.8-8.3,26.21,26.21,0,0,0,2.07,2c.06.06.14.11.2.16a182.59,182.59,0,0,1,2.77,19.12c.33,3.07.64,6,1,8.8l3.08-.39c-.38-2.8-.69-5.68-1-8.72-.6-5.49-1.21-11.07-2.22-16.5a11.41,11.41,0,0,0,4.71,1.18,6,6,0,0,0,2.54-.52c1.49-.7,3.19-2.39,2.89-6.48-.39-5.32-4.79-8.85-8.91-11.48.6,0,1.2.06,1.8.06a31.1,31.1,0,0,0,8.79-1.24,1.49,1.49,0,0,0,1-1.87,1.55,1.55,0,0,0-1.93-1c-4.22,1.23-10.75,0-15-.66-4.1-4.92-4.92-9-4.53-6.23.36,2.59,0,2.32.06,4.36h0l-3-.72c0,.1-.05.2-.08.3-.75-.12-1.48-.27-2.21-.41v8.9c.53-.84,1.09-1.67,1.69-2.48a21.36,21.36,0,0,0,.72,4.19,174.56,174.56,0,0,1,.36,21.59,11.67,11.67,0,0,1-2.77,4.14v3.66Zm8.61-32a13.71,13.71,0,0,0-1.07-1.69l1.39.89c.6.38,1.17.75,1.71,1.07l.29.18c4.27,2.58,9.58,5.79,9.94,10.69.1,1.33,0,3-1.15,3.56-1.42.67-4.31-.2-6.72-1.93A59.44,59.44,0,0,0,113.23,411.51Zm-1.35,4.6c.48,1.21.92,2.44,1.31,3.7-.34-.47-.67-.94-1-1.41C112.13,417.62,112,416.86,111.88,416.11Z"/><path class="a8c18db6-852a-4c80-9abb-612377bf84ea" d="M147.79,0H125.52S94.89,191.64,109.85,400l4.53,6.23S136.8,52.17,147.79,0Z"/></g></g></g></svg>