<svg xmlns="http://www.w3.org/2000/svg" xmlns:xlink="http://www.w3.org/1999/xlink" viewBox="0 0 862.44 767.85"><defs><style>.a452ceec-7757-4370-9c67-a2632cd2d159{isolation:isolate;}.a7a8e113-974d-4a71-b2ef-e762c0b936c2{fill:#9e0303;}.b9343ceb-fcfb-41ca-afb0-d5799e770127{fill:#6e0902;mix-blend-mode:screen;}.a0110b28-92a1-417c-9555-59a3df778631{mix-blend-mode:hard-light;fill:url(#bdc9df33-45bb-488b-8a44-042920242252);}.e200b6fa-594f-499b-a334-b3fe3d552e5f{fill:#f27500;}</style><linearGradient id="bdc9df33-45bb-488b-8a44-042920242252" x1="-1100.74" y1="-36.99" x2="-1100.74" y2="480.95" gradientTransform="matrix(-1, 0, 0, 1, -669.66, 0)" gradientUnits="userSpaceOnUse"><stop offset="0.01" stop-color="#460982"/><stop offset="0.99" stop-color="gray"/></linearGradient></defs><title>Recurso 13</title><g class="a452ceec-7757-4370-9c67-a2632cd2d159"><g id="bb9442d2-21e0-4938-a7f8-c66c6e3766cd" data-name="Capa 2"><g id="e8415111-fc00-47f6-ab62-0c0735717e8d" data-name="Capa 1"><path class="a7a8e113-974d-4a71-b2ef-e762c0b936c2" d="M859.28,0s-7.54,215-88,403.13c0,0,86,307.9,91.2,352.13,0,0-66.85,4-84,4,0,0-751,11-778.49,5.69V1.31Z"/><path class="b9343ceb-fcfb-41ca-afb0-d5799e770127" d="M768.41,269.41a892.65,892.65,0,0,0,4.32-98.64c-.22-33-1.42-66-1.73-98.94-.23-23.86,2-47.95.91-71.83h16.17c2.34,62.06,5.78,124.29-.07,186.26-5.23,55.34-10.74,110.7-19.22,165.68q-3.54,22.94-7.81,45.88c-.66,2.28-1.31,4.56-2,6.83a38,38,0,0,1-6.41.14v-12.5c1-8.48,2.06-17,3.21-25.42C760.18,334.41,765,302,768.41,269.41Z"/><path class="b9343ceb-fcfb-41ca-afb0-d5799e770127" d="M805.24,212.65c2.31-23,4.42-46,5.2-69.09,1.1-32.59.38-65.19-.82-97.77Q808.78,22.89,807.9,0h16.44c-.89,54.42-4.13,108.83-11.29,162.83Q809.74,187.78,805.24,212.65Z"/><path class="b9343ceb-fcfb-41ca-afb0-d5799e770127" d="M826.09,164.77C833.34,110.11,836.84,55.08,837.76,0h21.52s-6.56,186.9-72.69,364.66q1.83-11.48,3.49-23C805,283.44,818.2,224.29,826.09,164.77Z"/><path class="b9343ceb-fcfb-41ca-afb0-d5799e770127" d="M833.3,757.19c0,.84-1.48,17.6-53.1,7.35,3-29.64-15.8-305.76-15.77-335.39C770.77,456.47,832.91,729,833.3,757.19Z"/><path class="b9343ceb-fcfb-41ca-afb0-d5799e770127" d="M757.83,762.53c-2.22-2.1-2.44,5-22.15,2.69,3-29.64,6.09-320.47,14.23-352C756.25,440.58,755.49,734.42,757.83,762.53Z"/><path class="a0110b28-92a1-417c-9555-59a3df778631" d="M859.28,0s-7.8,214.92-88.3,403.06c0,0,86,307.81,91.19,352,0,0-12.16.28-29.11,1.46-.16,0,1.58,17.84-52.62,7.68l.3-5.16-23.23.25.17,2.82s-.58-.54-1.67.18c-6.94,4.65-20.17,2.8-20.17,2.8l.55-5.45s-209.72,1.43-280.34,2.65c-54.73.95-421.85,3.76-456,2.6V1.31Z"/><path class="e200b6fa-594f-499b-a334-b3fe3d552e5f" d="M752.61,443.52a9.81,9.81,0,0,0,2.52-1.84c-.08,1.61-.15,3.21-.23,4.81a272.54,272.54,0,0,0-.41,28.59l3.11-.16a269.81,269.81,0,0,1,.4-28.29c.17-3.4.34-6.83.46-10.27a26.35,26.35,0,0,0,1.27-4.28,40.23,40.23,0,0,0,.79-8.3c.65.69,1.34,1.36,2.07,2l.21.16a180,180,0,0,1,2.76,19.12c.34,3.07.65,6,1,8.8l3.08-.39c-.37-2.8-.68-5.68-1-8.72-.6-5.49-1.21-11.07-2.22-16.5a11.41,11.41,0,0,0,4.71,1.18,6,6,0,0,0,2.54-.52c1.48-.7,3.19-2.39,2.89-6.48-.39-5.32-4.8-8.85-8.92-11.48.6,0,1.2.06,1.81.06a31,31,0,0,0,8.78-1.24,1.49,1.49,0,0,0,1-1.87,1.56,1.56,0,0,0-1.94-1,29.36,29.36,0,0,1-12.73.72c4.25-.25,8.09-1.38,10.83-4a1.46,1.46,0,0,0,0-2.12,1.61,1.61,0,0,0-2.2,0c-3.33,3.23-9.25,3.58-15.35,2.91h0l-3-.72c0,.1,0,.2-.07.3-.75-.12-1.48-.27-2.22-.41v8.9c.54-.84,1.1-1.67,1.7-2.48a20,20,0,0,0,.72,4.19,176.53,176.53,0,0,1,.36,21.59,11.55,11.55,0,0,1-2.78,4.14v3.66Zm8.6-32a12.61,12.61,0,0,0-1.07-1.69l1.4.89c.59.38,1.16.75,1.7,1.07l.3.18c4.27,2.58,9.58,5.79,9.94,10.69.1,1.33,0,3-1.16,3.56-1.41.67-4.31-.2-6.71-1.93A58.93,58.93,0,0,0,761.21,411.51Zm-1.34,4.6c.48,1.21.91,2.44,1.31,3.7-.35-.47-.68-.94-1-1.41C760.11,417.62,760,416.86,759.87,416.11Z"/><path class="e200b6fa-594f-499b-a334-b3fe3d552e5f" d="M757.83,443.53v-3.66a11.67,11.67,0,0,1-2.77-4.14,174.56,174.56,0,0,1,.36-21.59,20.65,20.65,0,0,0,.72-4.19c.6.81,1.16,1.64,1.69,2.48v-8.9c-.73.14-1.46.29-2.21.41,0-.1,0-.2-.08-.3l-3,.72h0c.06-2-.3-1.77.06-4.36.39-2.78-.43,1.31-4.53,6.23-4.24.63-10.77,1.89-15,.66a1.56,1.56,0,0,0-1.94,1,1.49,1.49,0,0,0,1,1.87A31.15,31.15,0,0,0,741,411c.6,0,1.21,0,1.81-.06-4.13,2.63-8.53,6.16-8.92,11.48-.3,4.09,1.4,5.78,2.89,6.48a6,6,0,0,0,2.54.52,11.41,11.41,0,0,0,4.71-1.18c-1,5.43-1.62,11-2.22,16.5-.33,3-.64,5.92-1,8.72l3.08.39c.39-2.84.7-5.73,1-8.8a182.59,182.59,0,0,1,2.77-19.12c.06-.05.14-.1.2-.16a28.22,28.22,0,0,0,2.08-2,40.23,40.23,0,0,0,.79,8.3,26.35,26.35,0,0,0,1.27,4.28c.12,3.44.29,6.87.45,10.27a267.12,267.12,0,0,1,.41,28.29l3.1.16c.54-9.46.06-19.18-.4-28.59-.08-1.6-.16-3.2-.23-4.81a9.81,9.81,0,0,0,2.52,1.84Zm-13-19.25c-2.4,1.73-5.3,2.6-6.72,1.93-1.13-.53-1.25-2.23-1.15-3.56.36-4.9,5.67-8.11,9.94-10.69l.29-.18c.54-.32,1.11-.69,1.71-1.07l1.39-.89a13.71,13.71,0,0,0-1.07,1.69A59.44,59.44,0,0,0,744.82,424.28Zm5.4-5.88c-.3.47-.62.94-1,1.41.4-1.26.83-2.49,1.31-3.7C750.43,416.86,750.32,417.62,750.22,418.4Z"/><path class="b9343ceb-fcfb-41ca-afb0-d5799e770127" d="M714.65,0h22.27s30.64,191.64,15.67,400l-4.53,6.23S725.64,52.17,714.65,0Z"/></g></g></g></svg>