<?xml version="1.0" encoding="UTF-8"?>
<svg viewBox="0 0 1046.2 132.75" xmlns="http://www.w3.org/2000/svg">
<defs>
<style>.ea64c89c-5fd9-4a17-a875-77f03a7bf717{fill:#444343;}.f4d2b565-f17a-4ba0-b62d-33c30a063ef7{fill:#fff;}</style>
</defs>
<title>Recurso 25</title>
<g data-name="Capa 2">
<g data-name="Capa 1">
<path class="ea64c89c-5fd9-4a17-a875-77f03a7bf717" d="M987.81,5.44c-3.36-.7-6.73-1.33-10.09-1.88A291.41,291.41,0,0,0,912.67.61c-3.37.19-6.73.44-10.09.73-46.73,4-93.48,16.32-140.21,27.26q-5,1.18-10.09,2.34c-21.69,5-43.37,9.48-65,12.57-3.36.49-6.72.93-10.09,1.34a343,343,0,0,1-65.06,2.21c-3.36-.23-6.72-.52-10.09-.89A240,240,0,0,1,522.1,23.6c-.61-.29-3.46-1.37-4.07-1.67h0a238.14,238.14,0,0,0-50.49-16.5c-3.36-.7-6.73-1.33-10.09-1.88A291.41,291.41,0,0,0,392.4.61c-3.37.19-6.73.44-10.09.73-46.73,4-93.48,16.32-140.21,27.26q-5,1.18-10.09,2.34c-21.69,5-43.37,9.48-65,12.57-3.36.49-6.72.93-10.09,1.34a343,343,0,0,1-65.06,2.21c-3.36-.23-6.72-.52-10.09-.89A239.88,239.88,0,0,1,0,22.71v86.23A250.13,250.13,0,0,0,81.72,131.3q5.06.51,10.09.83a347.64,347.64,0,0,0,65.06-2.34q5.06-.61,10.09-1.34c21.77-3.14,43.46-7.72,65-12.78l10.09-2.39c21.79-5.24,43.48-10.82,65.06-15.73q5-1.15,10.09-2.26c21.81-4.75,43.51-8.67,65.06-10.72,3.37-.33,6.73-.6,10.09-.83,21.84-1.48,43.53-.87,65.05,2.92q5.06.87,10.09,2C485.08,92.57,564.4,126.93,602,131.3c3.36.39,6.73.62,10.09.83a347.64,347.64,0,0,0,65.06-2.34q5.05-.61,10.09-1.34c21.77-3.14,43.46-7.72,65-12.78l10.09-2.39c21.79-5.24,43.48-10.82,65.06-15.73q5-1.15,10.09-2.26c21.81-4.75,43.51-8.67,65.06-10.72,3.37-.33,6.73-.6,10.09-.83,21.84-1.48,43.53-.87,65.05,2.92q5.06.87,10.09,2a216,216,0,0,1,58.42,22.28V25.71A239,239,0,0,0,987.81,5.44Zm-896,110.94c-3.37-.29-6.73-.66-10.09-1.09V63.85c3.36.45,6.73.82,10.09,1.13ZM167,113.21c-3.36.51-6.73,1-10.09,1.41V63.42c3.36-.41,6.73-.86,10.09-1.36Zm75.14-16q-5,1.29-10.09,2.54V48.85q5-1.23,10.09-2.49ZM317.25,78.3q-5,1.14-10.09,2.33V30.16q5-1.18,10.09-2.29ZM392.4,66.73c-3.36.2-6.73.45-10.09.77V17.34c3.36-.29,6.73-.53,10.09-.72Zm75.14,5.79q-5-1.2-10.09-2.15V20.44q5,1,10.09,2.17Zm144.54,43.86c-3.37-.29-6.73-.66-10.09-1.09V65.24c3.36.45,6.73.82,10.09,1.13Zm75.15-3.17c-3.36.51-6.73,1-10.09,1.41V63.42c3.36-.41,6.73-.86,10.09-1.36Zm75.14-16q-5,1.29-10.09,2.54V48.85q5-1.23,10.09-2.49ZM837.52,78.3q-5,1.14-10.09,2.33V30.16q5-1.18,10.09-2.29Zm75.15-11.57c-3.36.2-6.73.45-10.09.77V17.34c3.36-.29,6.73-.53,10.09-.72Zm75.14,5.79q-5-1.2-10.09-2.15V20.44q5,1,10.09,2.17Z"/>
<path class="f4d2b565-f17a-4ba0-b62d-33c30a063ef7" d="M17.59,45.5A224.62,224.62,0,0,0,81.72,63.85v51.44A223,223,0,0,1,17.59,97Z"/>
<path class="f4d2b565-f17a-4ba0-b62d-33c30a063ef7" d="m156.87 63.42v51.2c-21.69 2.72-43.38 4.68-65.06 2.76v-52.38c21.69 2 43.37 1.07 65.06-1.58z"/>
<path class="f4d2b565-f17a-4ba0-b62d-33c30a063ef7" d="M167,62.06c21.69-3.16,43.37-7.93,65-13.21V99.7c-21.68,5.39-43.37,10.26-65,13.51Z"/>
<path class="f4d2b565-f17a-4ba0-b62d-33c30a063ef7" d="m242.1 46.36c21.69-5.42 43.37-11.18 65.06-16.2v50.47c-21.69 5.13-43.38 11-65.06 16.53z"/>
<path class="f4d2b565-f17a-4ba0-b62d-33c30a063ef7" d="m382.31 17.34v50.16c-21.68 2-43.37 5.92-65.06 10.8v-50.43c21.69-4.77 43.38-8.64 65.06-10.53z"/>
<path class="f4d2b565-f17a-4ba0-b62d-33c30a063ef7" d="m457.45 20.44v49.93a262 262 0 0 0-65.05-3.64v-50.11a263.08 263.08 0 0 1 65.05 3.82z"/>
<path class="f4d2b565-f17a-4ba0-b62d-33c30a063ef7" d="m508.37 36.65v49.89a221.62 221.62 0 0 0-40.83-14v-49.93a223.21 223.21 0 0 1 40.83 14.04z"/>
<path class="ea64c89c-5fd9-4a17-a875-77f03a7bf717" d="M91.81,64v54.4c-3.37-.29-6.73-.66-10.09-1.09V62.85C85.08,63.3,88.45,63.67,91.81,64Z"/>
<path class="ea64c89c-5fd9-4a17-a875-77f03a7bf717" d="M167,61.06v53.15c-3.36.51-6.73,1-10.09,1.41V62.42C160.23,62,163.6,61.56,167,61.06Z"/>
<path class="ea64c89c-5fd9-4a17-a875-77f03a7bf717" d="m242.1 45.36v52.8q-5 1.29-10.09 2.54v-52.85q5.04-1.23 10.09-2.49z"/>
<path class="ea64c89c-5fd9-4a17-a875-77f03a7bf717" d="M317.25,26.87V79.3q-5,1.14-10.09,2.33V29.16Q312.2,28,317.25,26.87Z"/>
<path class="ea64c89c-5fd9-4a17-a875-77f03a7bf717" d="M392.4,15.62V67.73c-3.36.2-6.73.45-10.09.77V16.34C385.67,16.05,389,15.81,392.4,15.62Z"/>
<path class="ea64c89c-5fd9-4a17-a875-77f03a7bf717" d="m467.54 21.61v51.91q-5-1.2-10.09-2.15v-51.93q5.04 0.96 10.09 2.17z"/>
<path class="f4d2b565-f17a-4ba0-b62d-33c30a063ef7" d="M519.36,40.41C540.73,50.15,580.61,61,602,63.85v51.44c-21.38-2.8-61.25-15.43-82.63-25.18Z"/>
<path class="f4d2b565-f17a-4ba0-b62d-33c30a063ef7" d="m677.14 63.42v51.2c-21.69 2.72-43.38 3.68-65.06 1.76v-51.38c21.69 2 43.37 1.07 65.06-1.58z"/>
<path class="f4d2b565-f17a-4ba0-b62d-33c30a063ef7" d="M687.23,62.06c21.69-3.16,43.37-7.93,65-13.21V99.7c-21.68,5.39-43.37,10.26-65,13.51Z"/>
<path class="f4d2b565-f17a-4ba0-b62d-33c30a063ef7" d="m762.37 46.36c21.69-5.42 43.37-11.18 65.06-16.2v50.47c-21.69 5.13-43.38 11-65.06 16.53z"/>
<path class="f4d2b565-f17a-4ba0-b62d-33c30a063ef7" d="m902.58 17.34v50.16c-21.68 2-43.37 5.92-65.06 10.8v-50.43c21.69-4.77 43.38-8.64 65.06-10.53z"/>
<path class="f4d2b565-f17a-4ba0-b62d-33c30a063ef7" d="m977.72 20.44v49.93a262 262 0 0 0-65.05-3.64v-50.11a263.08 263.08 0 0 1 65.05 3.82z"/>
<path class="f4d2b565-f17a-4ba0-b62d-33c30a063ef7" d="m1028.6 36.65v49.89a221.62 221.62 0 0 0-40.83-14v-49.93a223.21 223.21 0 0 1 40.83 14.04z"/>
<path class="ea64c89c-5fd9-4a17-a875-77f03a7bf717" d="m612.08 63.42v54c-3.37-0.29-6.73-0.66-10.09-1.09v-54c3.36 0.41 6.73 0.78 10.09 1.09z"/>
<path class="ea64c89c-5fd9-4a17-a875-77f03a7bf717" d="m687.23 61.06v53.15c-3.36 0.51-6.73 1-10.09 1.41v-53.2c3.36-0.42 6.73-0.86 10.09-1.36z"/>
<path class="ea64c89c-5fd9-4a17-a875-77f03a7bf717" d="m762.37 45.36v52.8q-5 1.29-10.09 2.54v-52.85q5.04-1.23 10.09-2.49z"/>
<path class="ea64c89c-5fd9-4a17-a875-77f03a7bf717" d="m837.52 26.87v52.43q-5 1.14-10.09 2.33v-52.47q5.04-1.16 10.09-2.29z"/>
<path class="ea64c89c-5fd9-4a17-a875-77f03a7bf717" d="m912.67 15.62v52.11c-3.36 0.2-6.73 0.45-10.09 0.77v-52.16c3.36-0.29 6.73-0.53 10.09-0.72z"/>
<path class="ea64c89c-5fd9-4a17-a875-77f03a7bf717" d="m987.81 21.61v51.91q-5-1.2-10.09-2.15v-51.93q5.04 0.96 10.09 2.17z"/>
</g>
</g>
</svg>
