<?xml version="1.0" encoding="UTF-8"?>
<svg viewBox="0 0 1046.2 132.75" xmlns="http://www.w3.org/2000/svg">
<defs>
<style>.f308f167-93fe-4346-b52a-525176275f0f{fill:#444343;}.a1b37119-56fc-4d7b-b233-1a53f0a6987d{fill:#fff;}</style>
</defs>
<title>Recurso 26</title>
<g data-name="Capa 2">
<g data-name="Capa 1">
<path class="f308f167-93fe-4346-b52a-525176275f0f" d="M987.81,5.44c-3.36-.7-6.73-1.33-10.09-1.88A291.41,291.41,0,0,0,912.67.61c-3.37.19-6.73.44-10.09.73-46.73,4-93.48,16.32-140.21,27.26q-5,1.18-10.09,2.34c-21.69,5-43.37,9.48-65,12.57-3.36.49-6.72.93-10.09,1.34a343,343,0,0,1-65.06,2.21c-3.36-.23-6.72-.52-10.09-.89A240,240,0,0,1,522.1,23.6c-.61-.29-3.46-1.37-4.07-1.67h0a238.14,238.14,0,0,0-50.49-16.5c-3.36-.7-6.73-1.33-10.09-1.88A291.41,291.41,0,0,0,392.4.61c-3.37.19-6.73.44-10.09.73-46.73,4-93.48,16.32-140.21,27.26q-5,1.18-10.09,2.34c-21.69,5-43.37,9.48-65,12.57-3.36.49-6.72.93-10.09,1.34a343,343,0,0,1-65.06,2.21c-3.36-.23-6.72-.52-10.09-.89A239.88,239.88,0,0,1,0,22.71v86.23A250.13,250.13,0,0,0,81.72,131.3q5.06.51,10.09.83a347.64,347.64,0,0,0,65.06-2.34q5.06-.61,10.09-1.34c21.77-3.14,43.46-7.72,65-12.78l10.09-2.39c21.79-5.24,43.48-10.82,65.06-15.73q5-1.15,10.09-2.26c21.81-4.75,43.51-8.67,65.06-10.72,3.37-.33,6.73-.6,10.09-.83,21.84-1.48,43.53-.87,65.05,2.92q5.06.87,10.09,2C485.08,92.57,564.4,126.93,602,131.3c3.36.39,6.73.62,10.09.83a347.64,347.64,0,0,0,65.06-2.34q5.05-.61,10.09-1.34c21.77-3.14,43.46-7.72,65-12.78l10.09-2.39c21.79-5.24,43.48-10.82,65.06-15.73q5-1.15,10.09-2.26c21.81-4.75,43.51-8.67,65.06-10.72,3.37-.33,6.73-.6,10.09-.83,21.84-1.48,43.53-.87,65.05,2.92q5.06.87,10.09,2a216,216,0,0,1,58.42,22.28V25.71A239,239,0,0,0,987.81,5.44Z"/>
<path class="a1b37119-56fc-4d7b-b233-1a53f0a6987d" d="m24.55 48.53a224.34 224.34 0 0 0 52.94 14.72 5 5 0 0 1 4.23 4.94v41.32a5 5 0 0 1-5.72 4.95 222.17 222.17 0 0 1-55.4-16.13 5 5 0 0 1-3-4.58v-40.62a5 5 0 0 1 6.95-4.6z"/>
<path class="a1b37119-56fc-4d7b-b233-1a53f0a6987d" d="M156.87,69v41.17a5,5,0,0,1-4.39,5c-18.66,2.24-37.32,3.76-56,2.58a5,5,0,0,1-4.7-5V70.39a5,5,0,0,1,5.33-5,306.05,306.05,0,0,0,54.21-1.36A5,5,0,0,1,156.87,69Z"/>
<path class="a1b37119-56fc-4d7b-b233-1a53f0a6987d" d="m171.21 61.42c18.21-2.83 36.42-6.74 54.63-11.08a5 5 0 0 1 6.16 4.86v40.58a5 5 0 0 1-3.81 4.86c-18.47 4.54-36.94 8.65-55.41 11.66a5 5 0 0 1-5.83-4.94v-41a5 5 0 0 1 4.26-4.94z"/>
<path class="a1b37119-56fc-4d7b-b233-1a53f0a6987d" d="m245.88 45.41c18.38-4.62 36.75-9.41 55.12-13.81a5 5 0 0 1 6.15 4.87v40.22a5 5 0 0 1-3.83 4.85c-18.33 4.41-36.66 9.31-55 14a5 5 0 0 1-6.24-4.85v-40.43a5 5 0 0 1 3.8-4.85z"/>
<path class="a1b37119-56fc-4d7b-b233-1a53f0a6987d" d="M382.31,22.84V63a5,5,0,0,1-4.52,5,500.74,500.74,0,0,0-54.49,9,5,5,0,0,1-6.05-4.89V31.9A5,5,0,0,1,321.19,27a516.68,516.68,0,0,1,55.59-9.15A5,5,0,0,1,382.31,22.84Z"/>
<path class="a1b37119-56fc-4d7b-b233-1a53f0a6987d" d="m457.45 24.61v39.81a5 5 0 0 1-5.8 4.93 262.1 262.1 0 0 0-54-2.9 5 5 0 0 1-5.21-5v-40.07a5 5 0 0 1 4.81-5 262.6 262.6 0 0 1 56.05 3.29 5 5 0 0 1 4.15 4.94z"/>
<path class="a1b37119-56fc-4d7b-b233-1a53f0a6987d" d="M508.37,39.9v39a5,5,0,0,1-6.89,4.63,220.39,220.39,0,0,0-30.21-10.1,5,5,0,0,1-3.73-4.84V29a5,5,0,0,1,6.28-4.84A223.64,223.64,0,0,1,505.4,35.32,5,5,0,0,1,508.37,39.9Z"/>
<path class="a1b37119-56fc-4d7b-b233-1a53f0a6987d" d="M526.24,43.34c20.69,8.28,51.81,16.7,71.55,19.89a5,5,0,0,1,4.2,4.93v41.27a5,5,0,0,1-5.89,4.93c-21.11-3.82-53.79-14.24-73.75-22.92a5,5,0,0,1-3-4.58V48A5,5,0,0,1,526.24,43.34Z"/>
<path class="a1b37119-56fc-4d7b-b233-1a53f0a6987d" d="M677.14,69v41.16a5,5,0,0,1-4.41,5,305.48,305.48,0,0,1-56,1.6,5,5,0,0,1-4.68-5V70.39a5,5,0,0,1,5.33-5,306.05,306.05,0,0,0,54.21-1.36A5,5,0,0,1,677.14,69Z"/>
<path class="a1b37119-56fc-4d7b-b233-1a53f0a6987d" d="m691.48 61.42c18.21-2.83 36.42-6.74 54.62-11.08a5 5 0 0 1 6.18 4.86v40.58a5 5 0 0 1-3.81 4.86c-18.47 4.54-37 8.65-55.42 11.66a5 5 0 0 1-5.82-4.94v-41a5 5 0 0 1 4.25-4.94z"/>
<path class="a1b37119-56fc-4d7b-b233-1a53f0a6987d" d="m766.15 45.41c18.38-4.62 36.75-9.41 55.13-13.81a5 5 0 0 1 6.15 4.87v40.22a5 5 0 0 1-3.84 4.85c-18.33 4.41-36.66 9.31-55 14a5 5 0 0 1-6.24-4.85v-40.43a5 5 0 0 1 3.8-4.85z"/>
<path class="a1b37119-56fc-4d7b-b233-1a53f0a6987d" d="m902.58 22.84v40.16a5 5 0 0 1-4.53 5 501.55 501.55 0 0 0-54.49 9 5 5 0 0 1-6-4.89v-40.21a5 5 0 0 1 3.9-4.9 515.87 515.87 0 0 1 55.59-9.15 5 5 0 0 1 5.53 4.99z"/>
<path class="a1b37119-56fc-4d7b-b233-1a53f0a6987d" d="m977.72 24.61v39.81a5 5 0 0 1-5.81 4.93 262 262 0 0 0-54-2.9 5 5 0 0 1-5.21-5v-40.07a5 5 0 0 1 4.81-5 262.5 262.5 0 0 1 56 3.29 5 5 0 0 1 4.21 4.94z"/>
<path class="a1b37119-56fc-4d7b-b233-1a53f0a6987d" d="m1028.6 39.9v39a5 5 0 0 1-6.89 4.63 220.39 220.39 0 0 0-30.21-10.1 5 5 0 0 1-3.73-4.84v-39.59a5 5 0 0 1 6.27-4.84 224.2 224.2 0 0 1 31.59 11.12 5 5 0 0 1 2.97 4.62z"/>
</g>
</g>
</svg>
